HIERARCHY
ROOT mPelvis
{
	OFFSET 0.000000 1.067000 -0.000000
	CHANNELS 6 Xposition Yposition Zposition Xrotation Yrotation Zrotation
	JOINT mTorso
	{
		OFFSET 0.000000 0.084000 -0.000000
		CHANNELS 3 Xrotation Yrotation Zrotation
		JOINT mChest
		{
			OFFSET 0.000000 0.205000 -0.015000
			CHANNELS 3 Xrotation Yrotation Zrotation
			JOINT mNeck
			{
				OFFSET 0.000000 0.251000 -0.010000
				CHANNELS 3 Xrotation Yrotation Zrotation
				JOINT mHead
				{
					OFFSET 0.000000 0.076000 0.000000
					CHANNELS 3 Xrotation Yrotation Zrotation
					JOINT mSkull
					{
						OFFSET 0.000000 0.079000 0.000000
						CHANNELS 3 Xrotation Yrotation Zrotation
						End Site
						{
							OFFSET -0.000000 -0.100000 0.000000
						}
					}
					JOINT mEyeRight
					{
						OFFSET -0.036000 0.079000 0.098000
						CHANNELS 3 Xrotation Yrotation Zrotation
						End Site
						{
							OFFSET -0.000000 -0.100000 0.000000
						}
					}
					JOINT mEyeLeft
					{
						OFFSET 0.036000 0.079000 0.098000
						CHANNELS 3 Xrotation Yrotation Zrotation
						End Site
						{
							OFFSET -0.000000 -0.100000 0.000000
						}
					}
					JOINT HEAD
					{
						OFFSET 0.000000 0.070000 0.020000
						CHANNELS 3 Xrotation Yrotation Zrotation
						End Site
						{
							OFFSET -0.000000 -0.100000 0.000000
						}
					}
				}
				JOINT NECK
				{
					OFFSET 0.000000 0.020000 0.000000
					CHANNELS 3 Xrotation Yrotation Zrotation
					End Site
					{
						OFFSET -0.000000 -0.100000 0.000000
					}
				}
			}
			JOINT mCollarLeft
			{
				OFFSET 0.085000 0.165000 -0.021000
				CHANNELS 3 Xrotation Yrotation Zrotation
				JOINT mShoulderLeft
				{
					OFFSET 0.079000 0.000000 -0.000000
					CHANNELS 3 Xrotation Yrotation Zrotation
					JOINT mElbowLeft
					{
						OFFSET 0.248000 0.000000 -0.000000
						CHANNELS 3 Xrotation Yrotation Zrotation
						JOINT mWristLeft
						{
							OFFSET 0.205000 0.000000 -0.000000
							CHANNELS 3 Xrotation Yrotation Zrotation
							JOINT L_HAND
							{
								OFFSET 0.050000 0.000000 0.010000
								CHANNELS 3 Xrotation Yrotation Zrotation
								End Site
								{
									OFFSET 0.000000 -0.100000 0.000000
								}
							}
						}
						JOINT L_LOWER_ARM
						{
							OFFSET 0.100000 0.000000 -0.000000
							CHANNELS 3 Xrotation Yrotation Zrotation
							End Site
							{
								OFFSET 0.000000 -0.100000 0.000000
							}
						}
					}
					JOINT L_UPPER_ARM
					{
						OFFSET 0.120000 0.010000 -0.000000
						CHANNELS 3 Xrotation Yrotation Zrotation
						End Site
						{
							OFFSET 0.000000 -0.100000 0.000000
						}
					}
				}
				JOINT L_CLAVICLE
				{
					OFFSET 0.000000 0.020000 0.020000
					CHANNELS 3 Xrotation Yrotation Zrotation
					End Site
					{
						OFFSET -0.000000 -0.100000 0.000000
					}
				}
			}
			JOINT mCollarRight
			{
				OFFSET -0.085000 0.165000 -0.021000
				CHANNELS 3 Xrotation Yrotation Zrotation
				JOINT mShoulderRight
				{
					OFFSET -0.079000 0.000000 0.000000
					CHANNELS 3 Xrotation Yrotation Zrotation
					JOINT mElbowRight
					{
						OFFSET -0.248000 0.000000 0.000000
						CHANNELS 3 Xrotation Yrotation Zrotation
						JOINT mWristRight
						{
							OFFSET -0.205000 0.000000 0.000000
							CHANNELS 3 Xrotation Yrotation Zrotation
							JOINT R_HAND
							{
								OFFSET -0.050000 0.000000 0.010000
								CHANNELS 3 Xrotation Yrotation Zrotation
								End Site
								{
									OFFSET 0.000000 -0.100000 0.000000
								}
							}
						}
						JOINT R_LOWER_ARM
						{
							OFFSET -0.100000 0.000000 0.000000
							CHANNELS 3 Xrotation Yrotation Zrotation
							End Site
							{
								OFFSET 0.000000 -0.100000 0.000000
							}
						}
					}
					JOINT R_UPPER_ARM
					{
						OFFSET -0.120000 0.010000 0.000000
						CHANNELS 3 Xrotation Yrotation Zrotation
						End Site
						{
							OFFSET 0.000000 -0.100000 0.000000
						}
					}
				}
				JOINT R_CLAVICLE
				{
					OFFSET 0.000000 0.020000 0.020000
					CHANNELS 3 Xrotation Yrotation Zrotation
					End Site
					{
						OFFSET -0.000000 -0.100000 0.000000
					}
				}
			}
			JOINT CHEST
			{
				OFFSET 0.000000 0.070000 0.028000
				CHANNELS 3 Xrotation Yrotation Zrotation
				End Site
				{
					OFFSET -0.000000 -0.100000 0.000000
				}
			}
			JOINT LEFT_PEC
			{
				OFFSET 0.082000 0.042000 0.119000
				CHANNELS 3 Xrotation Yrotation Zrotation
				End Site
				{
					OFFSET 0.000000 -0.100000 0.000000
				}
			}
			JOINT RIGHT_PEC
			{
				OFFSET -0.082000 0.042000 0.119000
				CHANNELS 3 Xrotation Yrotation Zrotation
				End Site
				{
					OFFSET 0.000000 -0.100000 0.000000
				}
			}
			JOINT UPPER_BACK
			{
				OFFSET 0.000000 0.017253 0.000000
				CHANNELS 3 Xrotation Yrotation Zrotation
				End Site
				{
					OFFSET -0.000000 -0.100000 0.000000
				}
			}
		}
		JOINT BELLY
		{
			OFFSET 0.000000 0.040000 0.028000
			CHANNELS 3 Xrotation Yrotation Zrotation
			End Site
			{
				OFFSET -0.000000 -0.100000 0.000000
			}
		}
		JOINT LOWER_BACK
		{
			OFFSET 0.000000 0.022848 -0.000000
			CHANNELS 3 Xrotation Yrotation Zrotation
			End Site
			{
				OFFSET -0.000000 -0.100000 0.000000
			}
		}
	}
	JOINT mHipRight
	{
		OFFSET -0.129000 -0.041000 0.034000
		CHANNELS 3 Xrotation Yrotation Zrotation
		JOINT mKneeRight
		{
			OFFSET 0.049000 -0.491000 -0.001000
			CHANNELS 3 Xrotation Yrotation Zrotation
			JOINT mAnkleRight
			{
				OFFSET -0.000000 -0.468000 -0.029000
				CHANNELS 3 Xrotation Yrotation Zrotation
				JOINT mFootRight
				{
					OFFSET 0.000000 -0.061000 0.112000
					CHANNELS 3 Xrotation Yrotation Zrotation
					JOINT mToeRight
					{
						OFFSET 0.000000 0.000000 0.109000
						CHANNELS 3 Xrotation Yrotation Zrotation
						End Site
						{
							OFFSET -0.000000 -0.100000 0.000000
						}
					}
				}
				JOINT R_FOOT
				{
					OFFSET 0.000000 -0.041000 0.077000
					CHANNELS 3 Xrotation Yrotation Zrotation
					End Site
					{
						OFFSET 0.000000 -0.100000 0.000000
					}
				}
			}
			JOINT R_LOWER_LEG
			{
				OFFSET -0.000000 -0.200000 -0.020000
				CHANNELS 3 Xrotation Yrotation Zrotation
				End Site
				{
					OFFSET -0.000000 -0.100000 0.000000
				}
			}
		}
		JOINT R_UPPER_LEG
		{
			OFFSET 0.050000 -0.220000 -0.020000
			CHANNELS 3 Xrotation Yrotation Zrotation
			End Site
			{
				OFFSET -0.000000 -0.100000 0.000000
			}
		}
	}
	JOINT mHipLeft
	{
		OFFSET 0.127000 -0.041000 0.034000
		CHANNELS 3 Xrotation Yrotation Zrotation
		JOINT mKneeLeft
		{
			OFFSET -0.046000 -0.491000 -0.001000
			CHANNELS 3 Xrotation Yrotation Zrotation
			JOINT mAnkleLeft
			{
				OFFSET 0.001000 -0.468000 -0.029000
				CHANNELS 3 Xrotation Yrotation Zrotation
				JOINT mFootLeft
				{
					OFFSET 0.000000 -0.061000 0.112000
					CHANNELS 3 Xrotation Yrotation Zrotation
					JOINT mToeLeft
					{
						OFFSET 0.000000 0.000000 0.109000
						CHANNELS 3 Xrotation Yrotation Zrotation
						End Site
						{
							OFFSET -0.000000 -0.100000 0.000000
						}
					}
				}
				JOINT L_FOOT
				{
					OFFSET 0.000000 -0.041000 0.077000
					CHANNELS 3 Xrotation Yrotation Zrotation
					End Site
					{
						OFFSET 0.000000 -0.100000 0.000000
					}
				}
			}
			JOINT L_LOWER_LEG
			{
				OFFSET -0.000000 -0.200000 -0.020000
				CHANNELS 3 Xrotation Yrotation Zrotation
				End Site
				{
					OFFSET -0.000000 -0.100000 0.000000
				}
			}
		}
		JOINT L_UPPER_LEG
		{
			OFFSET -0.050000 -0.220000 -0.020000
			CHANNELS 3 Xrotation Yrotation Zrotation
			End Site
			{
				OFFSET -0.000000 -0.100000 0.000000
			}
		}
	}
	JOINT PELVIS
	{
		OFFSET -0.000000 -0.020000 -0.010000
		CHANNELS 3 Xrotation Yrotation Zrotation
		End Site
		{
			OFFSET -0.000000 -0.100000 0.000000
		}
	}
	JOINT BUTT
	{
		OFFSET -0.000000 -0.100000 -0.060000
		CHANNELS 3 Xrotation Yrotation Zrotation
		End Site
		{
			OFFSET -0.000000 -0.100000 0.000000
		}
	}
}
MOTION
Frames: 5
Frame Time: 0.022222
0.000000 1.067000 -0.000000 2.791745 -0.000000 -0.000001 -1.880858 0.007789 0.137397 -2.448951 0.001800 0.097544 7.007887 -0.000001 -0.000001 7.221879 -0.000001 -0.000001 0.000002 0.000022 -179.999991 -0.000000 -0.000000 -0.000000 -0.000000 -0.000000 -0.000000 -0.000000 -0.000000 -0.000000 0.000001 0.000000 0.000000 -30.788925 -13.506918 13.606866 -28.408517 2.164276 -51.369060 -0.000007 -62.037222 -0.000013 -1.765077 4.438200 -11.078055 -0.000002 0.000002 0.000001 -0.000001 0.000001 -0.000003 0.000002 -0.000001 -0.000001 0.000000 0.000002 -0.000000 -30.788925 13.506912 -13.606862 -25.010618 14.877410 51.041242 -0.000000 57.181582 -0.000009 -1.403709 1.413195 27.990551 0.000002 0.000001 0.000001 -0.000000 -0.000001 -0.000001 -0.000001 0.000001 -0.000000 0.000000 0.000001 -0.000000 0.000001 -0.000000 -0.000000 0.000000 -0.000000 -0.000000 0.000000 -0.000000 -0.000000 0.000001 -0.000000 -0.000000 -0.000000 -0.000000 -0.000000 -0.000000 -0.000000 -0.000000 -2.387517 -0.238297 -0.000559 -0.786146 -0.003345 0.048736 0.000286 3.327830 -0.048596 -0.000018 0.000016 -0.000032 -0.000000 0.000000 -0.000000 -0.000018 0.000017 -0.000030 -0.000001 0.000000 -0.000000 -0.000000 0.000003 0.000138 -2.380512 0.222834 0.009951 -1.098789 0.000679 -0.008922 -0.000642 -3.765715 0.055915 0.000011 -0.000012 0.000028 0.000000 0.000000 -0.000000 0.000011 -0.000013 0.000026 -0.000000 0.000001 0.000000 0.000000 0.000002 -0.000100 -0.000000 -0.000000 0.000000 -0.000000 -0.000000 0.000000 
0.000000 1.067000 -0.000000 2.984289 -0.000000 -0.000001 -2.010566 0.008160 0.146880 -2.617844 0.001770 0.104272 7.491773 -0.000001 -0.000002 7.720591 -0.000001 -0.000001 0.000001 0.000022 -179.999991 -0.000001 -0.000000 -0.000000 -0.000001 -0.000000 -0.000000 -0.000001 -0.000000 -0.000000 -0.000000 0.000000 -0.000000 -32.926645 -14.724346 14.295537 -29.856423 1.922946 -49.005538 -0.000014 -66.850634 -0.000019 -1.998916 4.758239 -11.235642 -0.000001 -0.000002 0.000001 0.000003 0.000001 -0.000001 0.000004 0.000000 -0.000001 0.000001 0.000000 0.000002 -32.926648 14.724349 -14.295543 -26.438213 14.884396 48.688659 -0.000002 61.534076 -0.000014 -1.781313 1.434118 28.502994 0.000002 0.000003 -0.000000 0.000003 0.000002 -0.000001 0.000003 0.000001 -0.000002 0.000001 -0.000001 -0.000000 0.000000 0.000001 -0.000000 0.000000 0.000000 -0.000000 0.000000 0.000000 -0.000000 0.000000 0.000001 -0.000000 -0.000000 -0.000001 -0.000000 -0.000000 -0.000001 0.000000 -2.552174 -0.254727 -0.000963 -0.840355 -0.003601 0.052083 0.000406 3.557363 -0.051949 -0.000009 0.000016 -0.000034 -0.000000 -0.000000 0.000000 -0.000010 0.000016 -0.000034 -0.000001 0.000001 0.000000 -0.000000 0.000002 0.000135 -2.544687 0.238184 0.010978 -1.174557 0.000731 -0.009530 -0.000550 -4.025481 0.059781 0.000008 -0.000013 0.000025 0.000000 0.000001 0.000000 0.000009 -0.000013 0.000023 -0.000001 0.000001 0.000000 0.000000 0.000002 -0.000100 -0.000000 -0.000000 0.000000 -0.000000 -0.000000 0.000000 
0.000000 1.067000 -0.000000 3.176451 -0.000000 -0.000001 -2.140015 0.008508 0.156345 -2.786403 0.001721 0.110987 7.974696 -0.000001 -0.000001 8.218300 -0.000001 -0.000002 0.000002 0.000022 -179.999991 -0.000000 -0.000000 -0.000000 -0.000000 -0.000000 -0.000000 -0.000000 -0.000000 -0.000000 -0.000000 0.000000 -0.000000 -35.056246 -15.962669 14.939005 -31.272284 1.630493 -46.653774 -0.000021 -71.646089 -0.000023 -2.233793 5.078168 -11.381867 0.000002 -0.000004 0.000001 -0.000002 0.000003 -0.000004 0.000000 -0.000000 -0.000003 -0.000003 0.000000 0.000001 -35.056246 15.962666 -14.939002 -27.854200 14.933013 46.337127 0.000008 65.871717 -0.000012 -2.164586 1.450600 28.979956 -0.000002 -0.000000 -0.000001 0.000003 -0.000003 -0.000001 -0.000002 0.000001 -0.000001 -0.000000 -0.000002 0.000001 -0.000000 0.000000 0.000000 -0.000000 0.000000 -0.000000 -0.000000 0.000000 0.000000 -0.000000 0.000000 -0.000000 0.000000 -0.000000 -0.000000 0.000000 -0.000000 -0.000000 -2.716505 -0.271124 -0.001415 -0.894457 -0.003859 0.055427 0.000544 3.786449 -0.055305 -0.000016 0.000018 -0.000035 -0.000000 -0.000000 0.000000 -0.000016 0.000017 -0.000034 -0.000001 0.000000 -0.000000 -0.000000 0.000003 0.000137 -2.708537 0.253501 0.012047 -1.250175 0.000785 -0.010137 -0.000446 -4.284732 0.063637 0.000013 -0.000014 0.000028 -0.000000 0.000000 -0.000000 0.000013 -0.000014 0.000026 -0.000001 0.000000 0.000000 0.000000 0.000002 -0.000100 -0.000000 -0.000000 -0.000000 -0.000000 -0.000000 -0.000000 
0.000000 1.067000 -0.000000 3.367471 -0.000000 -0.000001 -2.268696 0.008833 0.165755 -2.953959 0.001652 0.117663 8.454726 -0.000001 -0.000002 8.713026 -0.000001 -0.000002 0.000001 0.000022 -179.999991 -0.000001 0.000000 0.000000 -0.000001 0.000000 0.000000 -0.000001 0.000000 0.000000 -0.000000 0.000000 0.000000 -37.168926 -17.213567 15.533665 -32.648881 1.290201 -44.326411 -0.000031 -76.388194 -0.000020 -2.468644 5.396645 -11.516992 0.000000 -0.000001 -0.000003 0.000003 -0.000001 0.000001 0.000000 -0.000000 0.000001 -0.000002 0.000001 0.000000 -37.168920 17.213559 -15.533667 -29.250582 15.023206 43.999935 0.000003 70.165208 -0.000014 -2.551407 1.462972 29.422631 0.000000 0.000000 0.000003 -0.000001 -0.000001 -0.000001 0.000004 0.000001 -0.000000 0.000001 -0.000002 -0.000000 -0.000000 0.000000 -0.000000 -0.000000 0.000000 0.000000 -0.000000 0.000000 -0.000000 -0.000000 0.000000 -0.000000 0.000000 -0.000001 0.000000 0.000000 -0.000001 0.000000 -2.879859 -0.287421 -0.001908 -0.948236 -0.004118 0.058750 0.000697 4.014167 -0.058636 -0.000016 0.000019 -0.000033 0.000000 -0.000000 -0.000000 -0.000016 0.000018 -0.000032 -0.000000 0.000001 0.000000 -0.000000 0.000003 0.000137 -2.871413 0.268723 0.013154 -1.325345 0.000839 -0.010740 -0.000318 -4.542435 0.067475 0.000006 -0.000015 0.000026 -0.000000 0.000000 -0.000000 0.000005 -0.000014 0.000025 -0.000000 0.000001 0.000000 0.000000 0.000002 -0.000100 -0.000000 0.000000 -0.000000 -0.000000 0.000000 -0.000000 
0.000000 1.067000 -0.000000 3.556586 -0.000000 -0.000001 -2.396094 0.009135 0.175072 -3.119846 0.001566 0.124271 8.929932 -0.000001 -0.000002 9.202783 -0.000001 -0.000002 0.000002 0.000022 -179.999991 0.000000 0.000000 0.000000 0.000000 0.000000 0.000000 0.000000 0.000000 0.000000 0.000000 -0.000000 -0.000000 -39.256123 -18.468461 16.076886 -33.979559 0.906384 -42.035689 -0.000016 -81.043056 -0.000038 -2.702455 5.712322 -11.641351 -0.000000 0.000003 0.000000 -0.000001 0.000001 -0.000002 0.000002 0.000000 -0.000003 0.000001 0.000000 -0.000000 -39.256126 18.468461 -16.076889 -30.619519 15.153716 41.690153 -0.000007 74.386224 -0.000016 -2.939670 1.471578 29.832187 0.000000 0.000002 0.000002 0.000000 0.000000 0.000001 -0.000001 0.000001 0.000000 0.000002 0.000000 -0.000001 -0.000000 0.000000 -0.000000 -0.000000 0.000000 -0.000000 -0.000000 0.000000 -0.000000 -0.000000 0.000000 -0.000000 -0.000000 -0.000000 0.000000 -0.000000 -0.000000 -0.000000 -3.041587 -0.303555 -0.002444 -1.001481 -0.004379 0.062038 0.000857 4.239619 -0.061946 -0.000014 0.000017 -0.000032 0.000000 -0.000000 0.000000 -0.000015 0.000017 -0.000031 -0.000002 0.000000 -0.000000 -0.000000 0.000003 0.000136 -3.032666 0.283790 0.014292 -1.399765 0.000893 -0.011337 -0.000181 -4.797571 0.071275 0.000007 -0.000012 0.000028 0.000000 0.000001 0.000000 0.000008 -0.000013 0.000025 -0.000001 0.000000 0.000000 0.000000 0.000002 -0.000099 -0.000000 0.000000 -0.000000 -0.000000 0.000000 -0.000000 
